<svg xmlns="http://www.w3.org/2000/svg" width="24" height="24" viewBox="0 0 24 24" fill="none">
<g clip-path="url(#clip0_75_489)">
<path d="M23.9907 12.0115C23.9907 13.7913 24.0138 15.5711 23.983 17.351C23.9569 18.8941 23.514 20.3158 22.5374 21.5362C21.6085 22.6981 20.389 23.4051 18.9542 23.7633C18.2714 23.9339 17.5778 23.9969 16.8765 23.9969C13.6362 24 10.3959 23.9969 7.15564 23.9969C6.02685 23.9969 4.92881 23.8324 3.89536 23.359C2.08375 22.5306 0.893438 21.1565 0.318275 19.2507C0.104511 18.5421 0.00301123 17.8121 0.00301123 17.0682C0.00301123 13.6053 -0.00929173 10.1425 0.0122384 6.67968C0.0199278 5.41628 0.347494 4.22205 1.00263 3.12925C1.71774 1.93809 2.73119 1.09275 4.01224 0.567099C4.97341 0.173632 5.97917 0.0107112 7.01416 0.0107112C10.4482 0.0107112 13.8838 -0.0246394 17.3164 0.0276181C19.5939 0.0629687 21.4763 0.982085 22.805 2.88794C23.4786 3.85471 23.8308 4.94289 23.9507 6.10639C23.9876 6.47065 23.9953 6.83953 23.9953 7.20687C23.9999 8.80841 23.9969 10.4099 23.9969 12.0115C23.9938 12.0115 23.9922 12.0115 23.9892 12.0115H23.9907ZM2.2237 11.9823C2.2237 13.5992 2.22062 15.2161 2.2237 16.833C2.2237 17.457 2.27598 18.0749 2.45745 18.6758C2.6989 19.4751 3.10028 20.1744 3.75234 20.7077C4.65968 21.4501 5.72696 21.7621 6.87729 21.7667C10.2498 21.7821 13.6239 21.779 16.9965 21.7667C17.4455 21.7652 17.9038 21.7052 18.3436 21.6115C19.4755 21.3702 20.3982 20.7846 21.0565 19.8194C21.6085 19.0124 21.8608 18.1041 21.8638 17.1358C21.8731 13.7283 21.87 10.3223 21.8669 6.91484C21.8669 6.15557 21.7054 5.42858 21.3794 4.74001C20.9365 3.80091 20.2568 3.10005 19.2987 2.67584C18.542 2.34078 17.7454 2.23473 16.9273 2.23626C13.6762 2.23934 10.4252 2.23626 7.17564 2.23626C6.55588 2.23626 5.9438 2.28852 5.34557 2.4622C3.92765 2.87565 2.9834 3.77786 2.50359 5.17344C2.28521 5.80821 2.22216 6.46604 2.22062 7.13156C2.21754 8.74846 2.22062 10.3654 2.22062 11.9823H2.2237Z" fill="#041022"/>
<path d="M18.1944 11.9623C18.1928 15.3683 15.4031 18.1487 11.9937 18.1441C8.55346 18.1395 5.78529 15.376 5.80528 11.927C5.82528 8.45648 8.65342 5.75753 12.0275 5.76368C15.3939 5.76983 18.1959 8.58558 18.1944 11.9608V11.9623ZM15.966 11.9639C15.9721 9.78597 14.2005 8.00768 12.0121 7.99538C9.83758 7.98309 8.03981 9.76445 8.03212 11.9408C8.02443 14.1187 9.82066 15.9231 11.9967 15.9262C14.1651 15.9293 15.9614 14.1372 15.966 11.9639Z" fill="#041022"/>
<path d="M18.4392 7.02091C17.6672 7.02091 17.0382 6.39536 17.0352 5.62379C17.0336 4.84454 17.6672 4.2113 18.4438 4.21745C19.2143 4.22206 19.8464 4.85684 19.8448 5.62225C19.8418 6.38921 19.2082 7.02091 18.4392 7.02091Z" fill="#041022"/>
</g>
<defs fill="#000000">
<clipPath id="clip0_75_489" fill="#000000">
<rect width="24" height="24" fill="white"/>
</clipPath>
</defs>
</svg>