<svg xmlns="http://www.w3.org/2000/svg" width="24" height="26" viewBox="0 0 24 26" fill="none">
<path d="M11.9872 0.0065307C14.1243 0.0065307 16.2605 -0.00535487 18.3976 0.0144544C19.0081 0.0203972 19.6318 0.0520921 20.2242 0.188776C22.0955 0.62359 23.2917 1.83493 23.7883 3.7703C23.8794 4.12488 23.925 4.49928 23.9392 4.86575C23.9753 5.77301 23.9943 6.68226 23.9953 7.59052C24.0009 11.3206 24.0028 15.0497 23.9934 18.7798C23.9915 19.4355 23.9725 20.0981 23.8861 20.7469C23.6933 22.191 23.0164 23.3448 21.8439 24.161C21.0863 24.6889 20.2394 24.9415 19.3346 24.9742C18.4555 25.0059 17.5764 25.0276 16.6963 25.0296C13.1294 25.0356 9.56248 25.0375 5.99558 25.0276C5.36708 25.0257 4.73098 25.0098 4.11008 24.9147C2.53217 24.675 1.34068 23.8193 0.588752 22.3395C0.238424 21.6511 0.0741778 20.9053 0.0551898 20.1278C0.0305054 19.1403 0.00582105 18.1518 0.00392225 17.1643C-0.000824751 13.5293 -0.00272355 9.89236 0.00677045 6.25537C0.00866925 5.59968 0.0267078 4.93706 0.114053 4.28831C0.318174 2.7828 1.03877 1.60019 2.28533 0.789988C3.01922 0.312584 3.83095 0.0857679 4.69111 0.0590253C5.65475 0.0293114 6.61934 0.0104926 7.58298 0.00454977C9.05075 -0.00436441 10.5195 0.00256884 11.9872 0.00256884V0.0065307ZM12.5426 20.107C12.5426 20.0426 12.5426 19.9911 12.5426 19.9386C12.5426 18.2479 12.5426 16.5582 12.5436 14.8675C12.5436 14.7179 12.5502 14.5664 12.574 14.4198C12.704 13.6304 13.1332 12.9311 14.0503 12.7548C14.5753 12.6538 15.0813 12.6954 15.5408 12.9965C16.0868 13.355 16.2928 13.9176 16.2966 14.5555C16.308 16.3472 16.2994 18.139 16.2985 19.9307C16.2985 19.9862 16.2985 20.0426 16.2985 20.0991H19.2055V19.9426C19.2055 17.9171 19.1979 15.8906 19.2103 13.8651C19.2141 13.2292 19.0992 12.632 18.8429 12.0595C18.6568 11.6425 18.4574 11.2334 18.1204 10.9205C17.2336 10.0964 16.1969 9.77152 15.0244 9.93297C13.9648 10.0786 13.0885 10.5797 12.4211 11.4613C12.4097 11.4761 12.3955 11.487 12.3642 11.5177V10.0875C12.3214 10.0835 12.2882 10.0786 12.2559 10.0786C11.4224 10.0786 10.5888 10.0805 9.75521 10.0756C9.63368 10.0756 9.63178 10.134 9.63178 10.2281C9.63368 13.4719 9.63273 16.7157 9.63368 19.9604C9.63368 20.007 9.63748 20.0545 9.63938 20.106H12.5417L12.5426 20.107ZM7.97128 10.0885H5.01106V20.104H7.97128V10.0885ZM4.79364 6.80904C4.79175 7.79851 5.53702 8.58296 6.48642 8.58891C7.43392 8.59485 8.20009 7.80248 8.20199 6.81399C8.20389 5.83938 7.44342 5.03611 6.5168 5.03413C5.54937 5.03215 4.79649 5.80768 4.79459 6.80904H4.79364Z" fill="#041022"/>
</svg>