<svg width="116" height="125" viewBox="0 0 116 125" fill="none" xmlns="http://www.w3.org/2000/svg">
<path d="M58.48 124.683C50.3642 92.0989 31.0583 71.9759 0.0107492 64.2037C0.8045 63.9664 1.29976 63.8085 1.79519 63.6698C10.6598 61.2632 19.1268 57.8354 26.884 52.5566C36.747 45.8445 43.8898 36.5749 49.1206 25.5028C52.4412 18.4687 54.9393 11.115 56.5911 3.43546C56.7521 2.67843 56.9432 1.93395 57.2378 0.689093C63.6809 35.689 82.7619 56.8 115.014 64.1393C100.545 66.6769 87.6979 72.9213 77.1731 84.1281C66.6424 95.3414 60.7578 109.025 58.474 124.683L58.48 124.683Z" fill="#FFFEEF"/>
</svg>
